<svg xmlns="http://www.w3.org/2000/svg" viewBox="0 0 2000 900" width="2000" height="900"><defs><linearGradient id="g" x1="0" y1="0" x2="1" y2="1"><stop offset="0" stop-color="#16352A"/><stop offset="1" stop-color="#2FB98A" stop-opacity=".55"/></linearGradient><linearGradient id="a" x1="0" y1="0" x2="0" y2="1"><stop offset="0" stop-color="#D9F0E5" stop-opacity=".55"/><stop offset="1" stop-color="#D9F0E5" stop-opacity="0"/></linearGradient></defs><rect width="2000" height="900" fill="url(#g)"/><rect x="120" y="788" width="77" height="112" rx="38" fill="#D9F0E5" opacity="0.18"/><rect x="266" y="746" width="77" height="154" rx="38" fill="#D9F0E5" opacity="0.23"/><rect x="412" y="692" width="77" height="208" rx="38" fill="#D9F0E5" opacity="0.28"/><rect x="558" y="633" width="77" height="267" rx="38" fill="#D9F0E5" opacity="0.33"/><rect x="705" y="595" width="77" height="305" rx="38" fill="#D9F0E5" opacity="0.38"/><rect x="851" y="527" width="77" height="373" rx="38" fill="#D9F0E5" opacity="0.43"/><rect x="997" y="508" width="77" height="392" rx="38" fill="#D9F0E5" opacity="0.48"/><rect x="1143" y="435" width="77" height="465" rx="38" fill="#D9F0E5" opacity="0.53"/><rect x="1289" y="372" width="77" height="528" rx="38" fill="#D9F0E5" opacity="0.58"/><circle cx="160" cy="162" r="3" fill="#D9F0E5" opacity=".35"/><circle cx="390" cy="199" r="3" fill="#D9F0E5" opacity=".35"/><circle cx="620" cy="236" r="3" fill="#D9F0E5" opacity=".35"/><circle cx="850" cy="273" r="3" fill="#D9F0E5" opacity=".35"/><circle cx="1080" cy="310" r="3" fill="#D9F0E5" opacity=".35"/><circle cx="1310" cy="167" r="3" fill="#D9F0E5" opacity=".35"/><circle cx="1540" cy="204" r="3" fill="#D9F0E5" opacity=".35"/><circle cx="1770" cy="241" r="3" fill="#D9F0E5" opacity=".35"/><path d="M0,649 C143,649 143,603 286,603 C429,603 429,618 571,618 C714,618 714,497 857,497 C1000,497 1000,480 1143,480 C1286,480 1286,430 1429,430 C1571,430 1571,297 1714,297 C1857,297 1857,230 2000,230 L2000,900 L0,900 Z" fill="url(#a)"/><path d="M0,649 C143,649 143,603 286,603 C429,603 429,618 571,618 C714,618 714,497 857,497 C1000,497 1000,480 1143,480 C1286,480 1286,430 1429,430 C1571,430 1571,297 1714,297 C1857,297 1857,230 2000,230" fill="none" stroke="#D9F0E5" stroke-width="8" stroke-linecap="round"/><circle cx="1994" cy="230" r="15" fill="#D9F0E5"/></svg>