<svg xmlns="http://www.w3.org/2000/svg" viewBox="0 0 2400 1400" width="2400" height="1400"><defs><linearGradient id="g" x1="0" y1="0" x2="1" y2="1"><stop offset="0" stop-color="#0D1A14"/><stop offset="1" stop-color="#0E9F6E" stop-opacity=".55"/></linearGradient><linearGradient id="a" x1="0" y1="0" x2="0" y2="1"><stop offset="0" stop-color="#8FE3C2" stop-opacity=".55"/><stop offset="1" stop-color="#8FE3C2" stop-opacity="0"/></linearGradient></defs><rect width="2400" height="1400" fill="url(#g)"/><rect x="144" y="1236" width="92" height="164" rx="46" fill="#8FE3C2" opacity="0.18"/><rect x="319" y="1125" width="92" height="275" rx="46" fill="#8FE3C2" opacity="0.23"/><rect x="495" y="1041" width="92" height="359" rx="46" fill="#8FE3C2" opacity="0.28"/><rect x="670" y="996" width="92" height="404" rx="46" fill="#8FE3C2" opacity="0.33"/><rect x="846" y="948" width="92" height="452" rx="46" fill="#8FE3C2" opacity="0.38"/><rect x="1021" y="868" width="92" height="532" rx="46" fill="#8FE3C2" opacity="0.43"/><rect x="1196" y="780" width="92" height="620" rx="46" fill="#8FE3C2" opacity="0.48"/><rect x="1372" y="699" width="92" height="701" rx="46" fill="#8FE3C2" opacity="0.53"/><rect x="1547" y="618" width="92" height="782" rx="46" fill="#8FE3C2" opacity="0.58"/><circle cx="192" cy="252" r="3" fill="#8FE3C2" opacity=".35"/><circle cx="468" cy="289" r="3" fill="#8FE3C2" opacity=".35"/><circle cx="744" cy="326" r="3" fill="#8FE3C2" opacity=".35"/><circle cx="1020" cy="363" r="3" fill="#8FE3C2" opacity=".35"/><circle cx="1296" cy="400" r="3" fill="#8FE3C2" opacity=".35"/><circle cx="1572" cy="437" r="3" fill="#8FE3C2" opacity=".35"/><circle cx="1848" cy="474" r="3" fill="#8FE3C2" opacity=".35"/><circle cx="2124" cy="511" r="3" fill="#8FE3C2" opacity=".35"/><path d="M0,916 C171,916 171,1017 343,1017 C514,1017 514,901 686,901 C857,901 857,844 1029,844 C1200,844 1200,717 1371,717 C1543,717 1543,599 1714,599 C1886,599 1886,597 2057,597 C2229,597 2229,400 2400,400 L2400,1400 L0,1400 Z" fill="url(#a)"/><path d="M0,916 C171,916 171,1017 343,1017 C514,1017 514,901 686,901 C857,901 857,844 1029,844 C1200,844 1200,717 1371,717 C1543,717 1543,599 1714,599 C1886,599 1886,597 2057,597 C2229,597 2229,400 2400,400" fill="none" stroke="#8FE3C2" stroke-width="12" stroke-linecap="round"/><circle cx="2394" cy="400" r="23" fill="#8FE3C2"/></svg>