<svg xmlns="http://www.w3.org/2000/svg" viewBox="0 0 1200 700" width="1200" height="700"><defs><linearGradient id="g" x1="0" y1="0" x2="1" y2="1"><stop offset="0" stop-color="#0D1A14"/><stop offset="1" stop-color="#0E9F6E" stop-opacity=".55"/></linearGradient><linearGradient id="a" x1="0" y1="0" x2="0" y2="1"><stop offset="0" stop-color="#8FE3C2" stop-opacity=".55"/><stop offset="1" stop-color="#8FE3C2" stop-opacity="0"/></linearGradient></defs><rect width="1200" height="700" fill="url(#g)"/><rect x="72" y="600" width="46" height="100" rx="23" fill="#8FE3C2" opacity="0.18"/><rect x="160" y="589" width="46" height="111" rx="23" fill="#8FE3C2" opacity="0.23"/><rect x="247" y="540" width="46" height="160" rx="23" fill="#8FE3C2" opacity="0.28"/><rect x="335" y="508" width="46" height="192" rx="23" fill="#8FE3C2" opacity="0.33"/><rect x="423" y="465" width="46" height="235" rx="23" fill="#8FE3C2" opacity="0.38"/><rect x="510" y="405" width="46" height="295" rx="23" fill="#8FE3C2" opacity="0.43"/><rect x="598" y="392" width="46" height="308" rx="23" fill="#8FE3C2" opacity="0.48"/><rect x="686" y="347" width="46" height="353" rx="23" fill="#8FE3C2" opacity="0.53"/><rect x="774" y="315" width="46" height="385" rx="23" fill="#8FE3C2" opacity="0.58"/><circle cx="96" cy="126" r="3" fill="#8FE3C2" opacity=".35"/><circle cx="234" cy="163" r="3" fill="#8FE3C2" opacity=".35"/><circle cx="372" cy="200" r="3" fill="#8FE3C2" opacity=".35"/><circle cx="510" cy="237" r="3" fill="#8FE3C2" opacity=".35"/><circle cx="648" cy="134" r="3" fill="#8FE3C2" opacity=".35"/><circle cx="786" cy="171" r="3" fill="#8FE3C2" opacity=".35"/><circle cx="924" cy="208" r="3" fill="#8FE3C2" opacity=".35"/><circle cx="1062" cy="245" r="3" fill="#8FE3C2" opacity=".35"/><path d="M0,505 C86,505 86,492 171,492 C257,492 257,473 343,473 C429,473 429,370 514,370 C600,370 600,320 686,320 C771,320 771,325 857,325 C943,325 943,245 1029,245 C1114,245 1114,229 1200,229 L1200,700 L0,700 Z" fill="url(#a)"/><path d="M0,505 C86,505 86,492 171,492 C257,492 257,473 343,473 C429,473 429,370 514,370 C600,370 600,320 686,320 C771,320 771,325 857,325 C943,325 943,245 1029,245 C1114,245 1114,229 1200,229" fill="none" stroke="#8FE3C2" stroke-width="6" stroke-linecap="round"/><circle cx="1194" cy="229" r="12" fill="#8FE3C2"/></svg>