<svg xmlns="http://www.w3.org/2000/svg" viewBox="0 0 1200 700" width="1200" height="700"><defs><linearGradient id="g" x1="0" y1="0" x2="1" y2="1"><stop offset="0" stop-color="#0D1A14"/><stop offset="1" stop-color="#0E9F6E" stop-opacity=".55"/></linearGradient><linearGradient id="a" x1="0" y1="0" x2="0" y2="1"><stop offset="0" stop-color="#8FE3C2" stop-opacity=".55"/><stop offset="1" stop-color="#8FE3C2" stop-opacity="0"/></linearGradient></defs><rect width="1200" height="700" fill="url(#g)"/><rect x="72" y="599" width="46" height="101" rx="23" fill="#8FE3C2" opacity="0.18"/><rect x="160" y="578" width="46" height="122" rx="23" fill="#8FE3C2" opacity="0.23"/><rect x="247" y="540" width="46" height="160" rx="23" fill="#8FE3C2" opacity="0.28"/><rect x="335" y="508" width="46" height="192" rx="23" fill="#8FE3C2" opacity="0.33"/><rect x="423" y="456" width="46" height="244" rx="23" fill="#8FE3C2" opacity="0.38"/><rect x="510" y="414" width="46" height="286" rx="23" fill="#8FE3C2" opacity="0.43"/><rect x="598" y="392" width="46" height="308" rx="23" fill="#8FE3C2" opacity="0.48"/><rect x="686" y="336" width="46" height="364" rx="23" fill="#8FE3C2" opacity="0.53"/><rect x="774" y="304" width="46" height="396" rx="23" fill="#8FE3C2" opacity="0.58"/><circle cx="96" cy="126" r="3" fill="#8FE3C2" opacity=".35"/><circle cx="234" cy="163" r="3" fill="#8FE3C2" opacity=".35"/><circle cx="372" cy="200" r="3" fill="#8FE3C2" opacity=".35"/><circle cx="510" cy="237" r="3" fill="#8FE3C2" opacity=".35"/><circle cx="648" cy="134" r="3" fill="#8FE3C2" opacity=".35"/><circle cx="786" cy="171" r="3" fill="#8FE3C2" opacity=".35"/><circle cx="924" cy="208" r="3" fill="#8FE3C2" opacity=".35"/><circle cx="1062" cy="245" r="3" fill="#8FE3C2" opacity=".35"/><path d="M0,528 C86,528 86,449 171,449 C257,449 257,414 343,414 C429,414 429,376 514,376 C600,376 600,344 686,344 C771,344 771,307 857,307 C943,307 943,280 1029,280 C1114,280 1114,184 1200,184 L1200,700 L0,700 Z" fill="url(#a)"/><path d="M0,528 C86,528 86,449 171,449 C257,449 257,414 343,414 C429,414 429,376 514,376 C600,376 600,344 686,344 C771,344 771,307 857,307 C943,307 943,280 1029,280 C1114,280 1114,184 1200,184" fill="none" stroke="#8FE3C2" stroke-width="6" stroke-linecap="round"/><circle cx="1194" cy="184" r="12" fill="#8FE3C2"/></svg>