<svg xmlns="http://www.w3.org/2000/svg" viewBox="0 0 1200 700" width="1200" height="700"><defs><linearGradient id="g" x1="0" y1="0" x2="1" y2="1"><stop offset="0" stop-color="#22142A"/><stop offset="1" stop-color="#8A5CC0" stop-opacity=".55"/></linearGradient><linearGradient id="a" x1="0" y1="0" x2="0" y2="1"><stop offset="0" stop-color="#E4D8F2" stop-opacity=".55"/><stop offset="1" stop-color="#E4D8F2" stop-opacity="0"/></linearGradient></defs><rect width="1200" height="700" fill="url(#g)"/><rect x="72" y="617" width="46" height="83" rx="23" fill="#E4D8F2" opacity="0.18"/><rect x="160" y="583" width="46" height="117" rx="23" fill="#E4D8F2" opacity="0.23"/><rect x="247" y="526" width="46" height="174" rx="23" fill="#E4D8F2" opacity="0.28"/><rect x="335" y="498" width="46" height="202" rx="23" fill="#E4D8F2" opacity="0.33"/><rect x="423" y="448" width="46" height="252" rx="23" fill="#E4D8F2" opacity="0.38"/><rect x="510" y="418" width="46" height="282" rx="23" fill="#E4D8F2" opacity="0.43"/><rect x="598" y="377" width="46" height="323" rx="23" fill="#E4D8F2" opacity="0.48"/><rect x="686" y="355" width="46" height="345" rx="23" fill="#E4D8F2" opacity="0.53"/><rect x="774" y="304" width="46" height="396" rx="23" fill="#E4D8F2" opacity="0.58"/><circle cx="96" cy="126" r="3" fill="#E4D8F2" opacity=".35"/><circle cx="234" cy="163" r="3" fill="#E4D8F2" opacity=".35"/><circle cx="372" cy="200" r="3" fill="#E4D8F2" opacity=".35"/><circle cx="510" cy="237" r="3" fill="#E4D8F2" opacity=".35"/><circle cx="648" cy="134" r="3" fill="#E4D8F2" opacity=".35"/><circle cx="786" cy="171" r="3" fill="#E4D8F2" opacity=".35"/><circle cx="924" cy="208" r="3" fill="#E4D8F2" opacity=".35"/><circle cx="1062" cy="245" r="3" fill="#E4D8F2" opacity=".35"/><path d="M0,540 C86,540 86,432 171,432 C257,432 257,483 343,483 C429,483 429,380 514,380 C600,380 600,365 686,365 C771,365 771,310 857,310 C943,310 943,274 1029,274 C1114,274 1114,192 1200,192 L1200,700 L0,700 Z" fill="url(#a)"/><path d="M0,540 C86,540 86,432 171,432 C257,432 257,483 343,483 C429,483 429,380 514,380 C600,380 600,365 686,365 C771,365 771,310 857,310 C943,310 943,274 1029,274 C1114,274 1114,192 1200,192" fill="none" stroke="#E4D8F2" stroke-width="6" stroke-linecap="round"/><circle cx="1194" cy="192" r="12" fill="#E4D8F2"/></svg>