<svg xmlns="http://www.w3.org/2000/svg" viewBox="0 0 1200 700" width="1200" height="700"><defs><linearGradient id="g" x1="0" y1="0" x2="1" y2="1"><stop offset="0" stop-color="#16352A"/><stop offset="1" stop-color="#2FB98A" stop-opacity=".55"/></linearGradient><linearGradient id="a" x1="0" y1="0" x2="0" y2="1"><stop offset="0" stop-color="#D9F0E5" stop-opacity=".55"/><stop offset="1" stop-color="#D9F0E5" stop-opacity="0"/></linearGradient></defs><rect width="1200" height="700" fill="url(#g)"/><rect x="72" y="622" width="46" height="78" rx="23" fill="#D9F0E5" opacity="0.18"/><rect x="160" y="566" width="46" height="134" rx="23" fill="#D9F0E5" opacity="0.23"/><rect x="247" y="524" width="46" height="176" rx="23" fill="#D9F0E5" opacity="0.28"/><rect x="335" y="489" width="46" height="211" rx="23" fill="#D9F0E5" opacity="0.33"/><rect x="423" y="471" width="46" height="229" rx="23" fill="#D9F0E5" opacity="0.38"/><rect x="510" y="423" width="46" height="277" rx="23" fill="#D9F0E5" opacity="0.43"/><rect x="598" y="392" width="46" height="308" rx="23" fill="#D9F0E5" opacity="0.48"/><rect x="686" y="358" width="46" height="342" rx="23" fill="#D9F0E5" opacity="0.53"/><rect x="774" y="312" width="46" height="388" rx="23" fill="#D9F0E5" opacity="0.58"/><circle cx="96" cy="126" r="3" fill="#D9F0E5" opacity=".35"/><circle cx="234" cy="163" r="3" fill="#D9F0E5" opacity=".35"/><circle cx="372" cy="200" r="3" fill="#D9F0E5" opacity=".35"/><circle cx="510" cy="237" r="3" fill="#D9F0E5" opacity=".35"/><circle cx="648" cy="134" r="3" fill="#D9F0E5" opacity=".35"/><circle cx="786" cy="171" r="3" fill="#D9F0E5" opacity=".35"/><circle cx="924" cy="208" r="3" fill="#D9F0E5" opacity=".35"/><circle cx="1062" cy="245" r="3" fill="#D9F0E5" opacity=".35"/><path d="M0,504 C86,504 86,485 171,485 C257,485 257,484 343,484 C429,484 429,407 514,407 C600,407 600,388 686,388 C771,388 771,345 857,345 C943,345 943,280 1029,280 C1114,280 1114,243 1200,243 L1200,700 L0,700 Z" fill="url(#a)"/><path d="M0,504 C86,504 86,485 171,485 C257,485 257,484 343,484 C429,484 429,407 514,407 C600,407 600,388 686,388 C771,388 771,345 857,345 C943,345 943,280 1029,280 C1114,280 1114,243 1200,243" fill="none" stroke="#D9F0E5" stroke-width="6" stroke-linecap="round"/><circle cx="1194" cy="243" r="12" fill="#D9F0E5"/></svg>