<svg xmlns="http://www.w3.org/2000/svg" viewBox="0 0 1200 700" width="1200" height="700"><defs><linearGradient id="g" x1="0" y1="0" x2="1" y2="1"><stop offset="0" stop-color="#16352A"/><stop offset="1" stop-color="#2FB98A" stop-opacity=".55"/></linearGradient><linearGradient id="a" x1="0" y1="0" x2="0" y2="1"><stop offset="0" stop-color="#D9F0E5" stop-opacity=".55"/><stop offset="1" stop-color="#D9F0E5" stop-opacity="0"/></linearGradient></defs><rect width="1200" height="700" fill="url(#g)"/><rect x="72" y="596" width="46" height="104" rx="23" fill="#D9F0E5" opacity="0.18"/><rect x="160" y="578" width="46" height="122" rx="23" fill="#D9F0E5" opacity="0.23"/><rect x="247" y="549" width="46" height="151" rx="23" fill="#D9F0E5" opacity="0.28"/><rect x="335" y="494" width="46" height="206" rx="23" fill="#D9F0E5" opacity="0.33"/><rect x="423" y="454" width="46" height="246" rx="23" fill="#D9F0E5" opacity="0.38"/><rect x="510" y="432" width="46" height="268" rx="23" fill="#D9F0E5" opacity="0.43"/><rect x="598" y="385" width="46" height="315" rx="23" fill="#D9F0E5" opacity="0.48"/><rect x="686" y="341" width="46" height="359" rx="23" fill="#D9F0E5" opacity="0.53"/><rect x="774" y="293" width="46" height="407" rx="23" fill="#D9F0E5" opacity="0.58"/><circle cx="96" cy="126" r="3" fill="#D9F0E5" opacity=".35"/><circle cx="234" cy="163" r="3" fill="#D9F0E5" opacity=".35"/><circle cx="372" cy="200" r="3" fill="#D9F0E5" opacity=".35"/><circle cx="510" cy="237" r="3" fill="#D9F0E5" opacity=".35"/><circle cx="648" cy="134" r="3" fill="#D9F0E5" opacity=".35"/><circle cx="786" cy="171" r="3" fill="#D9F0E5" opacity=".35"/><circle cx="924" cy="208" r="3" fill="#D9F0E5" opacity=".35"/><circle cx="1062" cy="245" r="3" fill="#D9F0E5" opacity=".35"/><path d="M0,519 C86,519 86,441 171,441 C257,441 257,465 343,465 C429,465 429,372 514,372 C600,372 600,376 686,376 C771,376 771,304 857,304 C943,304 943,231 1029,231 C1114,231 1114,183 1200,183 L1200,700 L0,700 Z" fill="url(#a)"/><path d="M0,519 C86,519 86,441 171,441 C257,441 257,465 343,465 C429,465 429,372 514,372 C600,372 600,376 686,376 C771,376 771,304 857,304 C943,304 943,231 1029,231 C1114,231 1114,183 1200,183" fill="none" stroke="#D9F0E5" stroke-width="6" stroke-linecap="round"/><circle cx="1194" cy="183" r="12" fill="#D9F0E5"/></svg>