<svg xmlns="http://www.w3.org/2000/svg" viewBox="0 0 800 560" width="800" height="560"><defs><linearGradient id="g" x1="0" y1="0" x2="1" y2="1"><stop offset="0" stop-color="#22142A"/><stop offset="1" stop-color="#8A5CC0" stop-opacity=".55"/></linearGradient><linearGradient id="a" x1="0" y1="0" x2="0" y2="1"><stop offset="0" stop-color="#E4D8F2" stop-opacity=".55"/><stop offset="1" stop-color="#E4D8F2" stop-opacity="0"/></linearGradient></defs><rect width="800" height="560" fill="url(#g)"/><rect x="48" y="500" width="31" height="60" rx="15" fill="#E4D8F2" opacity="0.18"/><rect x="106" y="450" width="31" height="110" rx="15" fill="#E4D8F2" opacity="0.23"/><rect x="165" y="420" width="31" height="140" rx="15" fill="#E4D8F2" opacity="0.28"/><rect x="223" y="404" width="31" height="156" rx="15" fill="#E4D8F2" opacity="0.33"/><rect x="282" y="365" width="31" height="195" rx="15" fill="#E4D8F2" opacity="0.38"/><rect x="340" y="327" width="31" height="233" rx="15" fill="#E4D8F2" opacity="0.43"/><rect x="399" y="315" width="31" height="245" rx="15" fill="#E4D8F2" opacity="0.48"/><rect x="457" y="280" width="31" height="280" rx="15" fill="#E4D8F2" opacity="0.53"/><rect x="516" y="256" width="31" height="304" rx="15" fill="#E4D8F2" opacity="0.58"/><circle cx="64" cy="101" r="3" fill="#E4D8F2" opacity=".35"/><circle cx="156" cy="138" r="3" fill="#E4D8F2" opacity=".35"/><circle cx="248" cy="175" r="3" fill="#E4D8F2" opacity=".35"/><circle cx="340" cy="212" r="3" fill="#E4D8F2" opacity=".35"/><circle cx="432" cy="137" r="3" fill="#E4D8F2" opacity=".35"/><circle cx="524" cy="174" r="3" fill="#E4D8F2" opacity=".35"/><circle cx="616" cy="211" r="3" fill="#E4D8F2" opacity=".35"/><circle cx="708" cy="136" r="3" fill="#E4D8F2" opacity=".35"/><path d="M0,399 C57,399 57,365 114,365 C171,365 171,389 229,389 C286,389 286,307 343,307 C400,307 400,259 457,259 C514,259 514,284 571,284 C629,284 629,222 686,222 C743,222 743,196 800,196 L800,560 L0,560 Z" fill="url(#a)"/><path d="M0,399 C57,399 57,365 114,365 C171,365 171,389 229,389 C286,389 286,307 343,307 C400,307 400,259 457,259 C514,259 514,284 571,284 C629,284 629,222 686,222 C743,222 743,196 800,196" fill="none" stroke="#E4D8F2" stroke-width="5" stroke-linecap="round"/><circle cx="794" cy="196" r="9" fill="#E4D8F2"/></svg>