<svg xmlns="http://www.w3.org/2000/svg" viewBox="0 0 800 560" width="800" height="560"><defs><linearGradient id="g" x1="0" y1="0" x2="1" y2="1"><stop offset="0" stop-color="#241C12"/><stop offset="1" stop-color="#C08A3E" stop-opacity=".55"/></linearGradient><linearGradient id="a" x1="0" y1="0" x2="0" y2="1"><stop offset="0" stop-color="#F0E0C6" stop-opacity=".55"/><stop offset="1" stop-color="#F0E0C6" stop-opacity="0"/></linearGradient></defs><rect width="800" height="560" fill="url(#g)"/><rect x="48" y="498" width="31" height="62" rx="15" fill="#F0E0C6" opacity="0.18"/><rect x="106" y="451" width="31" height="109" rx="15" fill="#F0E0C6" opacity="0.23"/><rect x="165" y="436" width="31" height="124" rx="15" fill="#F0E0C6" opacity="0.28"/><rect x="223" y="398" width="31" height="162" rx="15" fill="#F0E0C6" opacity="0.33"/><rect x="282" y="363" width="31" height="197" rx="15" fill="#F0E0C6" opacity="0.38"/><rect x="340" y="330" width="31" height="230" rx="15" fill="#F0E0C6" opacity="0.43"/><rect x="399" y="305" width="31" height="255" rx="15" fill="#F0E0C6" opacity="0.48"/><rect x="457" y="287" width="31" height="273" rx="15" fill="#F0E0C6" opacity="0.53"/><rect x="516" y="236" width="31" height="324" rx="15" fill="#F0E0C6" opacity="0.58"/><circle cx="64" cy="101" r="3" fill="#F0E0C6" opacity=".35"/><circle cx="156" cy="138" r="3" fill="#F0E0C6" opacity=".35"/><circle cx="248" cy="175" r="3" fill="#F0E0C6" opacity=".35"/><circle cx="340" cy="212" r="3" fill="#F0E0C6" opacity=".35"/><circle cx="432" cy="137" r="3" fill="#F0E0C6" opacity=".35"/><circle cx="524" cy="174" r="3" fill="#F0E0C6" opacity=".35"/><circle cx="616" cy="211" r="3" fill="#F0E0C6" opacity=".35"/><circle cx="708" cy="136" r="3" fill="#F0E0C6" opacity=".35"/><path d="M0,401 C57,401 57,350 114,350 C171,350 171,351 229,351 C286,351 286,311 343,311 C400,311 400,278 457,278 C514,278 514,255 571,255 C629,255 629,229 686,229 C743,229 743,187 800,187 L800,560 L0,560 Z" fill="url(#a)"/><path d="M0,401 C57,401 57,350 114,350 C171,350 171,351 229,351 C286,351 286,311 343,311 C400,311 400,278 457,278 C514,278 514,255 571,255 C629,255 629,229 686,229 C743,229 743,187 800,187" fill="none" stroke="#F0E0C6" stroke-width="5" stroke-linecap="round"/><circle cx="794" cy="187" r="9" fill="#F0E0C6"/></svg>