<svg xmlns="http://www.w3.org/2000/svg" viewBox="0 0 800 560" width="800" height="560"><defs><linearGradient id="g" x1="0" y1="0" x2="1" y2="1"><stop offset="0" stop-color="#16352A"/><stop offset="1" stop-color="#2FB98A" stop-opacity=".55"/></linearGradient><linearGradient id="a" x1="0" y1="0" x2="0" y2="1"><stop offset="0" stop-color="#D9F0E5" stop-opacity=".55"/><stop offset="1" stop-color="#D9F0E5" stop-opacity="0"/></linearGradient></defs><rect width="800" height="560" fill="url(#g)"/><rect x="48" y="498" width="31" height="62" rx="15" fill="#D9F0E5" opacity="0.18"/><rect x="106" y="448" width="31" height="112" rx="15" fill="#D9F0E5" opacity="0.23"/><rect x="165" y="424" width="31" height="136" rx="15" fill="#D9F0E5" opacity="0.28"/><rect x="223" y="394" width="31" height="166" rx="15" fill="#D9F0E5" opacity="0.33"/><rect x="282" y="357" width="31" height="203" rx="15" fill="#D9F0E5" opacity="0.38"/><rect x="340" y="323" width="31" height="237" rx="15" fill="#D9F0E5" opacity="0.43"/><rect x="399" y="307" width="31" height="253" rx="15" fill="#D9F0E5" opacity="0.48"/><rect x="457" y="273" width="31" height="287" rx="15" fill="#D9F0E5" opacity="0.53"/><rect x="516" y="249" width="31" height="311" rx="15" fill="#D9F0E5" opacity="0.58"/><circle cx="64" cy="101" r="3" fill="#D9F0E5" opacity=".35"/><circle cx="156" cy="138" r="3" fill="#D9F0E5" opacity=".35"/><circle cx="248" cy="175" r="3" fill="#D9F0E5" opacity=".35"/><circle cx="340" cy="212" r="3" fill="#D9F0E5" opacity=".35"/><circle cx="432" cy="137" r="3" fill="#D9F0E5" opacity=".35"/><circle cx="524" cy="174" r="3" fill="#D9F0E5" opacity=".35"/><circle cx="616" cy="211" r="3" fill="#D9F0E5" opacity=".35"/><circle cx="708" cy="136" r="3" fill="#D9F0E5" opacity=".35"/><path d="M0,400 C57,400 57,343 114,343 C171,343 171,380 229,380 C286,380 286,347 343,347 C400,347 400,322 457,322 C514,322 514,256 571,256 C629,256 629,179 686,179 C743,179 743,129 800,129 L800,560 L0,560 Z" fill="url(#a)"/><path d="M0,400 C57,400 57,343 114,343 C171,343 171,380 229,380 C286,380 286,347 343,347 C400,347 400,322 457,322 C514,322 514,256 571,256 C629,256 629,179 686,179 C743,179 743,129 800,129" fill="none" stroke="#D9F0E5" stroke-width="5" stroke-linecap="round"/><circle cx="794" cy="129" r="9" fill="#D9F0E5"/></svg>