<svg xmlns="http://www.w3.org/2000/svg" viewBox="0 0 800 560" width="800" height="560"><defs><linearGradient id="g" x1="0" y1="0" x2="1" y2="1"><stop offset="0" stop-color="#16352A"/><stop offset="1" stop-color="#2FB98A" stop-opacity=".55"/></linearGradient><linearGradient id="a" x1="0" y1="0" x2="0" y2="1"><stop offset="0" stop-color="#D9F0E5" stop-opacity=".55"/><stop offset="1" stop-color="#D9F0E5" stop-opacity="0"/></linearGradient></defs><rect width="800" height="560" fill="url(#g)"/><rect x="48" y="494" width="31" height="66" rx="15" fill="#D9F0E5" opacity="0.18"/><rect x="106" y="450" width="31" height="110" rx="15" fill="#D9F0E5" opacity="0.23"/><rect x="165" y="437" width="31" height="123" rx="15" fill="#D9F0E5" opacity="0.28"/><rect x="223" y="388" width="31" height="172" rx="15" fill="#D9F0E5" opacity="0.33"/><rect x="282" y="358" width="31" height="202" rx="15" fill="#D9F0E5" opacity="0.38"/><rect x="340" y="324" width="31" height="236" rx="15" fill="#D9F0E5" opacity="0.43"/><rect x="399" y="296" width="31" height="264" rx="15" fill="#D9F0E5" opacity="0.48"/><rect x="457" y="280" width="31" height="280" rx="15" fill="#D9F0E5" opacity="0.53"/><rect x="516" y="246" width="31" height="314" rx="15" fill="#D9F0E5" opacity="0.58"/><circle cx="64" cy="101" r="3" fill="#D9F0E5" opacity=".35"/><circle cx="156" cy="138" r="3" fill="#D9F0E5" opacity=".35"/><circle cx="248" cy="175" r="3" fill="#D9F0E5" opacity=".35"/><circle cx="340" cy="212" r="3" fill="#D9F0E5" opacity=".35"/><circle cx="432" cy="137" r="3" fill="#D9F0E5" opacity=".35"/><circle cx="524" cy="174" r="3" fill="#D9F0E5" opacity=".35"/><circle cx="616" cy="211" r="3" fill="#D9F0E5" opacity=".35"/><circle cx="708" cy="136" r="3" fill="#D9F0E5" opacity=".35"/><path d="M0,382 C57,382 57,347 114,347 C171,347 171,363 229,363 C286,363 286,290 343,290 C400,290 400,266 457,266 C514,266 514,233 571,233 C629,233 629,171 686,171 C743,171 743,173 800,173 L800,560 L0,560 Z" fill="url(#a)"/><path d="M0,382 C57,382 57,347 114,347 C171,347 171,363 229,363 C286,363 286,290 343,290 C400,290 400,266 457,266 C514,266 514,233 571,233 C629,233 629,171 686,171 C743,171 743,173 800,173" fill="none" stroke="#D9F0E5" stroke-width="5" stroke-linecap="round"/><circle cx="794" cy="173" r="9" fill="#D9F0E5"/></svg>