<svg xmlns="http://www.w3.org/2000/svg" viewBox="0 0 800 560" width="800" height="560"><defs><linearGradient id="g" x1="0" y1="0" x2="1" y2="1"><stop offset="0" stop-color="#16352A"/><stop offset="1" stop-color="#2FB98A" stop-opacity=".55"/></linearGradient><linearGradient id="a" x1="0" y1="0" x2="0" y2="1"><stop offset="0" stop-color="#D9F0E5" stop-opacity=".55"/><stop offset="1" stop-color="#D9F0E5" stop-opacity="0"/></linearGradient></defs><rect width="800" height="560" fill="url(#g)"/><rect x="48" y="481" width="31" height="79" rx="15" fill="#D9F0E5" opacity="0.18"/><rect x="106" y="446" width="31" height="114" rx="15" fill="#D9F0E5" opacity="0.23"/><rect x="165" y="419" width="31" height="141" rx="15" fill="#D9F0E5" opacity="0.28"/><rect x="223" y="398" width="31" height="162" rx="15" fill="#D9F0E5" opacity="0.33"/><rect x="282" y="363" width="31" height="197" rx="15" fill="#D9F0E5" opacity="0.38"/><rect x="340" y="341" width="31" height="219" rx="15" fill="#D9F0E5" opacity="0.43"/><rect x="399" y="308" width="31" height="252" rx="15" fill="#D9F0E5" opacity="0.48"/><rect x="457" y="273" width="31" height="287" rx="15" fill="#D9F0E5" opacity="0.53"/><rect x="516" y="238" width="31" height="322" rx="15" fill="#D9F0E5" opacity="0.58"/><circle cx="64" cy="101" r="3" fill="#D9F0E5" opacity=".35"/><circle cx="156" cy="138" r="3" fill="#D9F0E5" opacity=".35"/><circle cx="248" cy="175" r="3" fill="#D9F0E5" opacity=".35"/><circle cx="340" cy="212" r="3" fill="#D9F0E5" opacity=".35"/><circle cx="432" cy="137" r="3" fill="#D9F0E5" opacity=".35"/><circle cx="524" cy="174" r="3" fill="#D9F0E5" opacity=".35"/><circle cx="616" cy="211" r="3" fill="#D9F0E5" opacity=".35"/><circle cx="708" cy="136" r="3" fill="#D9F0E5" opacity=".35"/><path d="M0,374 C57,374 57,378 114,378 C171,378 171,347 229,347 C286,347 286,342 343,342 C400,342 400,321 457,321 C514,321 514,257 571,257 C629,257 629,247 686,247 C743,247 743,186 800,186 L800,560 L0,560 Z" fill="url(#a)"/><path d="M0,374 C57,374 57,378 114,378 C171,378 171,347 229,347 C286,347 286,342 343,342 C400,342 400,321 457,321 C514,321 514,257 571,257 C629,257 629,247 686,247 C743,247 743,186 800,186" fill="none" stroke="#D9F0E5" stroke-width="5" stroke-linecap="round"/><circle cx="794" cy="186" r="9" fill="#D9F0E5"/></svg>