<svg xmlns="http://www.w3.org/2000/svg" viewBox="0 0 800 560" width="800" height="560"><defs><linearGradient id="g" x1="0" y1="0" x2="1" y2="1"><stop offset="0" stop-color="#16352A"/><stop offset="1" stop-color="#2FB98A" stop-opacity=".55"/></linearGradient><linearGradient id="a" x1="0" y1="0" x2="0" y2="1"><stop offset="0" stop-color="#D9F0E5" stop-opacity=".55"/><stop offset="1" stop-color="#D9F0E5" stop-opacity="0"/></linearGradient></defs><rect width="800" height="560" fill="url(#g)"/><rect x="48" y="501" width="31" height="59" rx="15" fill="#D9F0E5" opacity="0.18"/><rect x="106" y="471" width="31" height="89" rx="15" fill="#D9F0E5" opacity="0.23"/><rect x="165" y="430" width="31" height="130" rx="15" fill="#D9F0E5" opacity="0.28"/><rect x="223" y="410" width="31" height="150" rx="15" fill="#D9F0E5" opacity="0.33"/><rect x="282" y="362" width="31" height="198" rx="15" fill="#D9F0E5" opacity="0.38"/><rect x="340" y="341" width="31" height="219" rx="15" fill="#D9F0E5" opacity="0.43"/><rect x="399" y="300" width="31" height="260" rx="15" fill="#D9F0E5" opacity="0.48"/><rect x="457" y="270" width="31" height="290" rx="15" fill="#D9F0E5" opacity="0.53"/><rect x="516" y="235" width="31" height="325" rx="15" fill="#D9F0E5" opacity="0.58"/><circle cx="64" cy="101" r="3" fill="#D9F0E5" opacity=".35"/><circle cx="156" cy="138" r="3" fill="#D9F0E5" opacity=".35"/><circle cx="248" cy="175" r="3" fill="#D9F0E5" opacity=".35"/><circle cx="340" cy="212" r="3" fill="#D9F0E5" opacity=".35"/><circle cx="432" cy="137" r="3" fill="#D9F0E5" opacity=".35"/><circle cx="524" cy="174" r="3" fill="#D9F0E5" opacity=".35"/><circle cx="616" cy="211" r="3" fill="#D9F0E5" opacity=".35"/><circle cx="708" cy="136" r="3" fill="#D9F0E5" opacity=".35"/><path d="M0,404 C57,404 57,342 114,342 C171,342 171,323 229,323 C286,323 286,329 343,329 C400,329 400,317 457,317 C514,317 514,275 571,275 C629,275 629,213 686,213 C743,213 743,140 800,140 L800,560 L0,560 Z" fill="url(#a)"/><path d="M0,404 C57,404 57,342 114,342 C171,342 171,323 229,323 C286,323 286,329 343,329 C400,329 400,317 457,317 C514,317 514,275 571,275 C629,275 629,213 686,213 C743,213 743,140 800,140" fill="none" stroke="#D9F0E5" stroke-width="5" stroke-linecap="round"/><circle cx="794" cy="140" r="9" fill="#D9F0E5"/></svg>